<mxfile host="app.diagrams.net" modified="2024-02-19T15:39:18.646Z" agent="Mozilla/5.0 (Windows NT 10.0; Win64; x64) AppleWebKit/537.36 (KHTML, like Gecko) Chrome/121.0.0.0 Safari/537.36 Edg/121.0.0.0" etag="8k_4kIU9BgpvTBToYe-e" version="23.1.5" type="github">
  <diagram name="PÃ¡gina-1" id="y6RkBmaSBtxW_mGC5njn">
    <mxGraphModel dx="746" dy="505" grid="1" gridSize="10" guides="1" tooltips="1" connect="1" arrows="1" fold="1" page="1" pageScale="1" pageWidth="827" pageHeight="1169" math="0" shadow="0">
      <root>
        <mxCell id="0" />
        <mxCell id="1" parent="0" />
        <mxCell id="5nB2AIG3lXJ9uvQNJv2y-1" value="ALUNO" style="rounded=0;whiteSpace=wrap;html=1;" vertex="1" parent="1">
          <mxGeometry x="150" y="130" width="120" height="60" as="geometry" />
        </mxCell>
        <mxCell id="5nB2AIG3lXJ9uvQNJv2y-2" value="NOME" style="ellipse;whiteSpace=wrap;html=1;" vertex="1" parent="1">
          <mxGeometry x="60" y="180" width="60" height="40" as="geometry" />
        </mxCell>
        <mxCell id="5nB2AIG3lXJ9uvQNJv2y-3" value="SEXO" style="ellipse;whiteSpace=wrap;html=1;" vertex="1" parent="1">
          <mxGeometry x="120" y="230" width="60" height="40" as="geometry" />
        </mxCell>
        <mxCell id="5nB2AIG3lXJ9uvQNJv2y-4" value="DataNasc" style="ellipse;whiteSpace=wrap;html=1;" vertex="1" parent="1">
          <mxGeometry x="200" y="230" width="60" height="40" as="geometry" />
        </mxCell>
        <mxCell id="5nB2AIG3lXJ9uvQNJv2y-5" value="Idade" style="ellipse;whiteSpace=wrap;html=1;" vertex="1" parent="1">
          <mxGeometry x="280" y="230" width="60" height="40" as="geometry" />
        </mxCell>
        <mxCell id="5nB2AIG3lXJ9uvQNJv2y-6" value="" style="endArrow=none;html=1;rounded=0;entryX=0;entryY=1;entryDx=0;entryDy=0;exitX=1;exitY=0.5;exitDx=0;exitDy=0;" edge="1" parent="1" source="5nB2AIG3lXJ9uvQNJv2y-2" target="5nB2AIG3lXJ9uvQNJv2y-1">
          <mxGeometry width="50" height="50" relative="1" as="geometry">
            <mxPoint x="360" y="290" as="sourcePoint" />
            <mxPoint x="410" y="240" as="targetPoint" />
          </mxGeometry>
        </mxCell>
        <mxCell id="5nB2AIG3lXJ9uvQNJv2y-7" value="" style="endArrow=none;html=1;rounded=0;entryX=0.25;entryY=1;entryDx=0;entryDy=0;exitX=0.617;exitY=-0.05;exitDx=0;exitDy=0;exitPerimeter=0;" edge="1" parent="1" source="5nB2AIG3lXJ9uvQNJv2y-3" target="5nB2AIG3lXJ9uvQNJv2y-1">
          <mxGeometry width="50" height="50" relative="1" as="geometry">
            <mxPoint x="160" y="205" as="sourcePoint" />
            <mxPoint x="190" y="195" as="targetPoint" />
          </mxGeometry>
        </mxCell>
        <mxCell id="5nB2AIG3lXJ9uvQNJv2y-8" value="" style="endArrow=none;dashed=1;html=1;rounded=0;entryX=1;entryY=1;entryDx=0;entryDy=0;exitX=0.5;exitY=0;exitDx=0;exitDy=0;" edge="1" parent="1" source="5nB2AIG3lXJ9uvQNJv2y-5" target="5nB2AIG3lXJ9uvQNJv2y-1">
          <mxGeometry width="50" height="50" relative="1" as="geometry">
            <mxPoint x="360" y="290" as="sourcePoint" />
            <mxPoint x="410" y="240" as="targetPoint" />
          </mxGeometry>
        </mxCell>
        <mxCell id="5nB2AIG3lXJ9uvQNJv2y-9" value="" style="endArrow=none;html=1;rounded=0;entryX=0.617;entryY=1.033;entryDx=0;entryDy=0;exitX=0.5;exitY=0;exitDx=0;exitDy=0;entryPerimeter=0;" edge="1" parent="1" source="5nB2AIG3lXJ9uvQNJv2y-4" target="5nB2AIG3lXJ9uvQNJv2y-1">
          <mxGeometry width="50" height="50" relative="1" as="geometry">
            <mxPoint x="218.49" y="228" as="sourcePoint" />
            <mxPoint x="241.49" y="190" as="targetPoint" />
          </mxGeometry>
        </mxCell>
        <mxCell id="5nB2AIG3lXJ9uvQNJv2y-10" value="" style="endArrow=none;html=1;rounded=0;entryX=1;entryY=0.5;entryDx=0;entryDy=0;exitX=0;exitY=0.5;exitDx=0;exitDy=0;" edge="1" parent="1" source="5nB2AIG3lXJ9uvQNJv2y-11" target="5nB2AIG3lXJ9uvQNJv2y-1">
          <mxGeometry width="50" height="50" relative="1" as="geometry">
            <mxPoint x="400" y="160" as="sourcePoint" />
            <mxPoint x="410" y="240" as="targetPoint" />
          </mxGeometry>
        </mxCell>
        <mxCell id="5nB2AIG3lXJ9uvQNJv2y-11" value="Morada" style="ellipse;whiteSpace=wrap;html=1;" vertex="1" parent="1">
          <mxGeometry x="410" y="135" width="80" height="50" as="geometry" />
        </mxCell>
        <mxCell id="5nB2AIG3lXJ9uvQNJv2y-12" value="NumMec" style="ellipse;whiteSpace=wrap;html=1;" vertex="1" parent="1">
          <mxGeometry x="90" y="80" width="60" height="40" as="geometry" />
        </mxCell>
        <mxCell id="5nB2AIG3lXJ9uvQNJv2y-13" value="" style="endArrow=none;html=1;rounded=0;entryX=0.25;entryY=0;entryDx=0;entryDy=0;exitX=1.017;exitY=0.75;exitDx=0;exitDy=0;exitPerimeter=0;" edge="1" parent="1" source="5nB2AIG3lXJ9uvQNJv2y-12" target="5nB2AIG3lXJ9uvQNJv2y-1">
          <mxGeometry width="50" height="50" relative="1" as="geometry">
            <mxPoint x="150" y="100" as="sourcePoint" />
            <mxPoint x="150" y="130" as="targetPoint" />
          </mxGeometry>
        </mxCell>
        <mxCell id="5nB2AIG3lXJ9uvQNJv2y-14" value="Num" style="ellipse;whiteSpace=wrap;html=1;" vertex="1" parent="1">
          <mxGeometry x="180" y="70" width="60" height="40" as="geometry" />
        </mxCell>
      </root>
    </mxGraphModel>
  </diagram>
</mxfile>
